<?xml version="1.0" encoding="UTF-8" standalone="no"?>
<!DOCTYPE svg PUBLIC "-//W3C//DTD SVG 1.1//EN" "http://www.w3.org/Graphics/SVG/1.1/DTD/svg11.dtd">
<svg version="1.1" xmlns="http://www.w3.org/2000/svg" xmlns:xlink="http://www.w3.org/1999/xlink" preserveAspectRatio="xMidYMid meet" viewBox="0 0 640 639" width="641" height="640"><defs><path d="M345.9 510.25C345.9 514.12 342.77 517.26 338.9 517.26C306.34 517.26 216.25 517.26 183.84 517.26C179.57 517.26 176.12 513.8 176.12 509.54C176.12 466.82 176.12 342.81 176.12 299.2C176.12 297.41 177.56 295.97 179.35 295.97C212.66 295.97 309.27 295.97 342.56 295.97C344.41 295.97 345.9 297.47 345.9 299.31C345.9 342.9 345.9 467.4 345.9 510.25Z" id="ael20LDth"></path><path d="M332.2 312.97C332.2 313.49 331.78 313.91 331.26 313.91C300.53 313.91 209.33 313.91 178.62 313.91C178.05 313.91 177.59 313.44 177.59 312.87C177.59 307.17 177.59 293.74 177.59 288.7C177.59 286.29 179.54 284.34 181.95 284.34C212 284.34 297.77 284.34 327.82 284.34C330.24 284.34 332.2 286.3 332.2 288.72C332.2 293.75 332.2 307.24 332.2 312.97Z" id="bpuNTCTKF"></path><path d="M342.01 506.1C342.01 509.97 338.87 513.11 335 513.11C302.45 513.11 212.36 513.11 179.94 513.11C175.68 513.11 172.22 509.65 172.22 505.39C172.22 462.68 172.22 338.66 172.22 295.05C172.22 293.26 173.67 291.82 175.45 291.82C208.76 291.82 305.37 291.82 338.66 291.82C340.51 291.82 342.01 293.32 342.01 295.16C342.01 338.75 342.01 463.25 342.01 506.1Z" id="bLB2klkve"></path><path d="M339.79 504.14C339.79 508.01 336.65 511.15 332.78 511.15C300.22 511.15 210.13 511.15 177.72 511.15C173.46 511.15 170 507.69 170 503.43C170 460.71 170 336.7 170 293.09C170 291.3 171.45 289.86 173.23 289.86C206.54 289.86 303.15 289.86 336.44 289.86C338.29 289.86 339.79 291.35 339.79 293.2C339.79 336.79 339.79 461.28 339.79 504.14Z" id="b15HEI6GSR"></path><path d="M335.18 295.97C336.8 295.97 338.11 297.28 338.11 298.9C338.11 340.91 338.11 464.59 338.11 506.75C338.11 507.97 337.12 508.96 335.9 508.96C303.95 508.96 210.68 508.96 178.82 508.96C177.33 508.96 176.12 507.75 176.12 506.25C176.12 464.2 176.12 340.91 176.12 298.9C176.12 297.28 177.43 295.97 179.05 295.97C210.87 295.97 303.37 295.97 335.18 295.97Z" id="agvAN4bqO"></path><linearGradient id="gradienta1v3YCQMh9" gradientUnits="userSpaceOnUse" x1="257.12" y1="295.97" x2="257.12" y2="508.96"><stop style="stop-color: #e3e0e0;stop-opacity: 1" offset="0%"></stop><stop style="stop-color: #a8a5a5;stop-opacity: 1" offset="100%"></stop></linearGradient><path d="M327.56 313.91C328.39 313.91 329.05 314.57 329.05 315.39C329.05 336.69 329.05 399.4 329.05 420.78C329.05 421.4 328.55 421.9 327.93 421.9C300.94 421.9 221.28 421.9 194.34 421.9C193.58 421.9 192.97 421.28 192.97 420.53C192.97 399.2 192.97 336.69 192.97 315.39C192.97 314.57 193.64 313.91 194.46 313.91C221.38 313.91 300.65 313.91 327.56 313.91Z" id="a1sl9wmrhw"></path><linearGradient id="gradientf195Tpuzgs" gradientUnits="userSpaceOnUse" x1="261.01" y1="313.91" x2="261.01" y2="421.9"><stop style="stop-color: #e3e0e0;stop-opacity: 1" offset="0%"></stop><stop style="stop-color: #a8a5a5;stop-opacity: 1" offset="100%"></stop></linearGradient><path d="M322.77 317.41C323.53 317.41 324.16 318.03 324.16 318.8C324.16 338.72 324.16 397.36 324.16 417.35C324.16 417.93 323.69 418.4 323.11 418.4C297.9 418.4 223.52 418.4 198.36 418.4C197.65 418.4 197.08 417.82 197.08 417.12C197.08 397.17 197.08 338.72 197.08 318.8C197.08 318.03 197.7 317.41 198.47 317.41C223.6 317.41 297.63 317.41 322.77 317.41Z" id="a1oyxK9dsz"></path><path d="M275.39 191.35C275.48 191.35 275.55 191.42 275.55 191.52C275.55 193.88 275.55 200.84 275.55 203.22C275.55 203.29 275.5 203.34 275.43 203.34C269.64 203.34 252.41 203.34 246.62 203.34C246.54 203.34 246.47 203.27 246.47 203.19C246.47 200.82 246.47 193.88 246.47 191.52C246.47 191.42 246.54 191.35 246.64 191.35C252.42 191.35 269.6 191.35 275.39 191.35Z" id="aHAbt0TJP"></path><path d="M246.47 209.4L275.55 209.4L275.55 203.34L246.47 203.34L246.47 209.4Z" id="a12Gp8WpwF"></path></defs><g><g><g><use xlink:href="#ael20LDth" opacity="1" fill="#c8c2d1" fill-opacity="1"></use><g><use xlink:href="#ael20LDth" opacity="1" fill-opacity="0" stroke="#9b8db0" stroke-width="3" stroke-opacity="1"></use></g></g><g><use xlink:href="#bpuNTCTKF" opacity="1" fill="#c8c2d1" fill-opacity="1"></use><g><use xlink:href="#bpuNTCTKF" opacity="1" fill-opacity="0" stroke="#9b8db0" stroke-width="0" stroke-opacity="1"></use></g></g><g><use xlink:href="#bLB2klkve" opacity="1" fill="#c8c2d1" fill-opacity="1"></use><g><use xlink:href="#bLB2klkve" opacity="1" fill-opacity="0" stroke="#9b8db0" stroke-width="3" stroke-opacity="1"></use></g></g><g><use xlink:href="#b15HEI6GSR" opacity="1" fill="#c8c2d1" fill-opacity="1"></use><g><use xlink:href="#b15HEI6GSR" opacity="1" fill-opacity="0" stroke="#9b8db0" stroke-width="0" stroke-opacity="1"></use></g></g><g><use xlink:href="#agvAN4bqO" opacity="1" fill="url(#gradienta1v3YCQMh9)"></use><g><use xlink:href="#agvAN4bqO" opacity="1" fill-opacity="0" stroke="#7b7b7b" stroke-width="1" stroke-opacity="1"></use></g></g><g><use xlink:href="#a1sl9wmrhw" opacity="1" fill="url(#gradientf195Tpuzgs)"></use><g><use xlink:href="#a1sl9wmrhw" opacity="1" fill-opacity="0" stroke="#7b7b7b" stroke-width="1" stroke-opacity="1"></use></g></g><g><use xlink:href="#a1oyxK9dsz" opacity="1" fill="#5e5f53" fill-opacity="1"></use><g><use xlink:href="#a1oyxK9dsz" opacity="1" fill-opacity="0" stroke="#7b7b7b" stroke-width="1" stroke-opacity="1"></use></g></g><g><use xlink:href="#aHAbt0TJP" opacity="1" fill="#5e5f53" fill-opacity="1"></use><g><use xlink:href="#aHAbt0TJP" opacity="1" fill-opacity="0" stroke="#7b7b7b" stroke-width="1" stroke-opacity="1"></use></g></g><g><g><use xlink:href="#a12Gp8WpwF" opacity="1" fill-opacity="0" stroke="#746942" stroke-width="1" stroke-opacity="1"></use></g></g></g></g></svg>