<?xml version="1.0" encoding="UTF-8" standalone="no"?>
<!DOCTYPE svg PUBLIC "-//W3C//DTD SVG 1.1//EN" "http://www.w3.org/Graphics/SVG/1.1/DTD/svg11.dtd">
<svg version="1.1" xmlns="http://www.w3.org/2000/svg" xmlns:xlink="http://www.w3.org/1999/xlink" preserveAspectRatio="xMidYMid meet" viewBox="0 0 300 300" width="300" height="300"><defs><path d="M191.12 72.78C195.96 72.78 199.89 76.7 199.89 81.55C199.89 112.24 199.89 197.7 199.89 228.93C199.89 232.28 197.17 235 193.82 235C168.15 235 98.09 235 72.64 235C68.67 235 65.44 231.78 65.44 227.8C65.44 196.8 65.44 112.59 65.44 81.99C65.44 76.9 69.57 72.78 74.65 72.78C99.7 72.78 165.98 72.78 191.12 72.78Z" id="c3r7psNQVC"></path><radialGradient id="gradientdP0gTvjIv" gradientUnits="userSpaceOnUse" cx="132.67" cy="72.78" dx="132.67" dy="235" r="162.22"><stop style="stop-color: #ded8d8;stop-opacity: 1" offset="0%"></stop><stop style="stop-color: #010000;stop-opacity: 1" offset="100%"></stop></radialGradient><path d="M83.78 91.56L181.56 91.56L181.56 153.89L83.78 153.89L83.78 91.56Z" id="a8bWheHCr"></path><path d="M83.78 163.64L102.67 163.64L102.67 174.86L83.78 174.86L83.78 163.64Z" id="bu9InU5mc"></path><path d="M123.22 163.64L142.11 163.64L142.11 174.86L123.22 174.86L123.22 163.64Z" id="a5TD3U3r1"></path><path d="M162.67 174.86L181.56 174.86L181.56 163.64L162.67 163.64L162.67 174.86Z" id="a80e4uLIn"></path><path d="M123.22 196.67L142.11 196.67L142.11 185.44L123.22 185.44L123.22 196.67Z" id="b5p3GwkYve"></path><path d="M83.78 196.67L102.67 196.67L102.67 185.44L83.78 185.44L83.78 196.67Z" id="blJLjlHbO"></path><path d="M162.67 196.67L181.56 196.67L181.56 185.44L162.67 185.44L162.67 196.67Z" id="k1LJqNRpr"></path><path d="M83.78 219.58L102.67 219.58L102.67 208.36L83.78 208.36L83.78 219.58Z" id="b3myxaW0Ms"></path><path d="M123.22 219.58L142.11 219.58L142.11 208.36L123.22 208.36L123.22 219.58Z" id="blnAbnD18"></path><path d="M162.67 219.58L181.56 219.58L181.56 208.36L162.67 208.36L162.67 219.58Z" id="aEuzOPcNF"></path></defs><g><g><g><use xlink:href="#c3r7psNQVC" opacity="1" fill="url(#gradientdP0gTvjIv)"></use><g><use xlink:href="#c3r7psNQVC" opacity="1" fill-opacity="0" stroke="#676c68" stroke-width="0" stroke-opacity="1"></use></g></g><g><use xlink:href="#a8bWheHCr" opacity="1" fill="#abacb1" fill-opacity="1"></use><g><use xlink:href="#a8bWheHCr" opacity="1" fill-opacity="0" stroke="#75746d" stroke-width="5" stroke-opacity="1"></use></g><g><use xlink:href="#a8bWheHCr" opacity="1" fill-opacity="0" stroke="#9c9585" stroke-width="3" stroke-opacity="1"></use></g></g><g><use xlink:href="#bu9InU5mc" opacity="1" fill="#abacb1" fill-opacity="1"></use><g><use xlink:href="#bu9InU5mc" opacity="1" fill-opacity="0" stroke="#75746d" stroke-width="5" stroke-opacity="1"></use></g><g><use xlink:href="#bu9InU5mc" opacity="1" fill-opacity="0" stroke="#9c9585" stroke-width="3" stroke-opacity="1"></use></g></g><g><use xlink:href="#a5TD3U3r1" opacity="1" fill="#abacb1" fill-opacity="1"></use><g><use xlink:href="#a5TD3U3r1" opacity="1" fill-opacity="0" stroke="#75746d" stroke-width="5" stroke-opacity="1"></use></g><g><use xlink:href="#a5TD3U3r1" opacity="1" fill-opacity="0" stroke="#9c9585" stroke-width="3" stroke-opacity="1"></use></g></g><g><use xlink:href="#a80e4uLIn" opacity="1" fill="#abacb1" fill-opacity="1"></use><g><use xlink:href="#a80e4uLIn" opacity="1" fill-opacity="0" stroke="#75746d" stroke-width="5" stroke-opacity="1"></use></g><g><use xlink:href="#a80e4uLIn" opacity="1" fill-opacity="0" stroke="#9c9585" stroke-width="3" stroke-opacity="1"></use></g></g><g><use xlink:href="#b5p3GwkYve" opacity="1" fill="#abacb1" fill-opacity="1"></use><g><use xlink:href="#b5p3GwkYve" opacity="1" fill-opacity="0" stroke="#75746d" stroke-width="5" stroke-opacity="1"></use></g><g><use xlink:href="#b5p3GwkYve" opacity="1" fill-opacity="0" stroke="#9c9585" stroke-width="3" stroke-opacity="1"></use></g></g><g><use xlink:href="#blJLjlHbO" opacity="1" fill="#abacb1" fill-opacity="1"></use><g><use xlink:href="#blJLjlHbO" opacity="1" fill-opacity="0" stroke="#75746d" stroke-width="5" stroke-opacity="1"></use></g><g><use xlink:href="#blJLjlHbO" opacity="1" fill-opacity="0" stroke="#9c9585" stroke-width="3" stroke-opacity="1"></use></g></g><g><use xlink:href="#k1LJqNRpr" opacity="1" fill="#abacb1" fill-opacity="1"></use><g><use xlink:href="#k1LJqNRpr" opacity="1" fill-opacity="0" stroke="#75746d" stroke-width="5" stroke-opacity="1"></use></g><g><use xlink:href="#k1LJqNRpr" opacity="1" fill-opacity="0" stroke="#9c9585" stroke-width="3" stroke-opacity="1"></use></g></g><g><use xlink:href="#b3myxaW0Ms" opacity="1" fill="#abacb1" fill-opacity="1"></use><g><use xlink:href="#b3myxaW0Ms" opacity="1" fill-opacity="0" stroke="#75746d" stroke-width="5" stroke-opacity="1"></use></g><g><use xlink:href="#b3myxaW0Ms" opacity="1" fill-opacity="0" stroke="#9c9585" stroke-width="3" stroke-opacity="1"></use></g></g><g><use xlink:href="#blnAbnD18" opacity="1" fill="#abacb1" fill-opacity="1"></use><g><use xlink:href="#blnAbnD18" opacity="1" fill-opacity="0" stroke="#75746d" stroke-width="5" stroke-opacity="1"></use></g><g><use xlink:href="#blnAbnD18" opacity="1" fill-opacity="0" stroke="#9c9585" stroke-width="3" stroke-opacity="1"></use></g></g><g><use xlink:href="#aEuzOPcNF" opacity="1" fill="#abacb1" fill-opacity="1"></use><g><use xlink:href="#aEuzOPcNF" opacity="1" fill-opacity="0" stroke="#75746d" stroke-width="5" stroke-opacity="1"></use></g><g><use xlink:href="#aEuzOPcNF" opacity="1" fill-opacity="0" stroke="#9c9585" stroke-width="3" stroke-opacity="1"></use></g></g></g></g></svg>