<?xml version="1.0" encoding="UTF-8" standalone="no"?>
<!DOCTYPE svg PUBLIC "-//W3C//DTD SVG 1.1//EN" "http://www.w3.org/Graphics/SVG/1.1/DTD/svg11.dtd">
<svg version="1.1" xmlns="http://www.w3.org/2000/svg" xmlns:xlink="http://www.w3.org/1999/xlink" preserveAspectRatio="xMidYMid meet" viewBox="0 0 300 300" width="300" height="300"><defs><path d="M232.14 163.96C234.56 168.15 233.12 173.51 228.93 175.93C202.35 191.28 128.33 234.01 101.29 249.63C98.39 251.3 94.68 250.31 93 247.41C80.16 225.17 45.13 164.5 32.41 142.46C30.42 139.02 31.6 134.62 35.04 132.63C61.9 117.13 134.82 75.02 161.33 59.72C165.73 57.18 171.36 58.69 173.9 63.09C186.43 84.78 219.57 142.19 232.14 163.96Z" id="ahrYnK6N"></path><radialGradient id="gradienteYhtI3Lih" gradientUnits="userSpaceOnUse" cx="202.91" cy="113.33" dx="62.42" dy="194.44" r="162.22"><stop style="stop-color: #ded8d8;stop-opacity: 1" offset="0%"></stop><stop style="stop-color: #010000;stop-opacity: 1" offset="100%"></stop></radialGradient><path d="M165.94 78.05L214.83 162.73L160.84 193.9L111.95 109.22L165.94 78.05Z" id="acQijAAkv"></path><path d="M101.19 115.49L110.64 131.85L100.92 137.46L91.47 121.11L101.19 115.49Z" id="dgJcVmZZn"></path><path d="M82.03 126.48L91.47 142.84L81.75 148.45L72.31 132.09L82.03 126.48Z" id="ann04WbLt"></path><path d="M59.95 139.02L69.4 155.37L59.68 160.98L50.23 144.63L59.95 139.02Z" id="c1SSF5gVh"></path><path d="M101.19 204.88L110.64 221.24L100.92 226.85L91.47 210.49L101.19 204.88Z" id="a4p17inVrJ"></path><path d="M121.67 193.9L131.12 210.26L121.4 215.87L111.95 199.51L121.67 193.9Z" id="cr9fqCjam"></path><path d="M140.56 182.91L150 199.27L140.28 204.88L130.84 188.52L140.56 182.91Z" id="anICoo8L5"></path><path d="M111.67 155.61L121.12 171.97L130.84 166.36L121.39 150L111.67 155.61Z" id="hNUTZ1liU"></path><path d="M101.19 160.94L110.64 177.3L100.92 182.91L91.47 166.55L101.19 160.94Z" id="aNUSDd8q4"></path><path d="M70.6 177.54L80.05 193.9L89.76 188.29L80.32 171.93L70.6 177.54Z" id="c1cAMTEnS5"></path></defs><g><g><g><use xlink:href="#ahrYnK6N" opacity="1" fill="url(#gradienteYhtI3Lih)"></use><g><use xlink:href="#ahrYnK6N" opacity="1" fill-opacity="0" stroke="#676c68" stroke-width="0" stroke-opacity="1"></use></g></g><g><use xlink:href="#acQijAAkv" opacity="1" fill="#abacb1" fill-opacity="1"></use><g><use xlink:href="#acQijAAkv" opacity="1" fill-opacity="0" stroke="#75746d" stroke-width="5" stroke-opacity="1"></use></g><g><use xlink:href="#acQijAAkv" opacity="1" fill-opacity="0" stroke="#9c9585" stroke-width="3" stroke-opacity="1"></use></g></g><g><use xlink:href="#dgJcVmZZn" opacity="1" fill="#abacb1" fill-opacity="1"></use><g><use xlink:href="#dgJcVmZZn" opacity="1" fill-opacity="0" stroke="#75746d" stroke-width="5" stroke-opacity="1"></use></g><g><use xlink:href="#dgJcVmZZn" opacity="1" fill-opacity="0" stroke="#9c9585" stroke-width="3" stroke-opacity="1"></use></g></g><g><use xlink:href="#ann04WbLt" opacity="1" fill="#abacb1" fill-opacity="1"></use><g><use xlink:href="#ann04WbLt" opacity="1" fill-opacity="0" stroke="#75746d" stroke-width="5" stroke-opacity="1"></use></g><g><use xlink:href="#ann04WbLt" opacity="1" fill-opacity="0" stroke="#9c9585" stroke-width="3" stroke-opacity="1"></use></g></g><g><use xlink:href="#c1SSF5gVh" opacity="1" fill="#abacb1" fill-opacity="1"></use><g><use xlink:href="#c1SSF5gVh" opacity="1" fill-opacity="0" stroke="#75746d" stroke-width="5" stroke-opacity="1"></use></g><g><use xlink:href="#c1SSF5gVh" opacity="1" fill-opacity="0" stroke="#9c9585" stroke-width="3" stroke-opacity="1"></use></g></g><g><use xlink:href="#a4p17inVrJ" opacity="1" fill="#abacb1" fill-opacity="1"></use><g><use xlink:href="#a4p17inVrJ" opacity="1" fill-opacity="0" stroke="#75746d" stroke-width="5" stroke-opacity="1"></use></g><g><use xlink:href="#a4p17inVrJ" opacity="1" fill-opacity="0" stroke="#9c9585" stroke-width="3" stroke-opacity="1"></use></g></g><g><use xlink:href="#cr9fqCjam" opacity="1" fill="#abacb1" fill-opacity="1"></use><g><use xlink:href="#cr9fqCjam" opacity="1" fill-opacity="0" stroke="#75746d" stroke-width="5" stroke-opacity="1"></use></g><g><use xlink:href="#cr9fqCjam" opacity="1" fill-opacity="0" stroke="#9c9585" stroke-width="3" stroke-opacity="1"></use></g></g><g><use xlink:href="#anICoo8L5" opacity="1" fill="#abacb1" fill-opacity="1"></use><g><use xlink:href="#anICoo8L5" opacity="1" fill-opacity="0" stroke="#75746d" stroke-width="5" stroke-opacity="1"></use></g><g><use xlink:href="#anICoo8L5" opacity="1" fill-opacity="0" stroke="#9c9585" stroke-width="3" stroke-opacity="1"></use></g></g><g><use xlink:href="#hNUTZ1liU" opacity="1" fill="#abacb1" fill-opacity="1"></use><g><use xlink:href="#hNUTZ1liU" opacity="1" fill-opacity="0" stroke="#75746d" stroke-width="5" stroke-opacity="1"></use></g><g><use xlink:href="#hNUTZ1liU" opacity="1" fill-opacity="0" stroke="#9c9585" stroke-width="3" stroke-opacity="1"></use></g></g><g><use xlink:href="#aNUSDd8q4" opacity="1" fill="#abacb1" fill-opacity="1"></use><g><use xlink:href="#aNUSDd8q4" opacity="1" fill-opacity="0" stroke="#75746d" stroke-width="5" stroke-opacity="1"></use></g><g><use xlink:href="#aNUSDd8q4" opacity="1" fill-opacity="0" stroke="#9c9585" stroke-width="3" stroke-opacity="1"></use></g></g><g><use xlink:href="#c1cAMTEnS5" opacity="1" fill="#abacb1" fill-opacity="1"></use><g><use xlink:href="#c1cAMTEnS5" opacity="1" fill-opacity="0" stroke="#75746d" stroke-width="5" stroke-opacity="1"></use></g><g><use xlink:href="#c1cAMTEnS5" opacity="1" fill-opacity="0" stroke="#9c9585" stroke-width="3" stroke-opacity="1"></use></g></g></g></g></svg>