<?xml version="1.0" encoding="UTF-8" standalone="no"?>
<!DOCTYPE svg PUBLIC "-//W3C//DTD SVG 1.1//EN" "http://www.w3.org/Graphics/SVG/1.1/DTD/svg11.dtd">
<svg version="1.1" xmlns="http://www.w3.org/2000/svg" xmlns:xlink="http://www.w3.org/1999/xlink" preserveAspectRatio="xMidYMid meet" viewBox="0 0 200 200" width="200" height="200"><defs><path d="" id="atHRTket0"></path><path d="" id="h4MPn1VkzA"></path><path d="" id="a5UfQ8Mcr7"></path><path d="M168.17 100C168.17 137.26 137.62 167.5 100 167.5C62.38 167.5 31.83 137.26 31.83 100C31.83 62.74 62.38 32.5 100 32.5C137.62 32.5 168.17 62.74 168.17 100Z" id="a7W2LQWK35"></path><linearGradient id="gradienta5Q8UcCrp" gradientUnits="userSpaceOnUse" x1="100" y1="32.5" x2="163.97" y2="230.26"><stop style="stop-color: #e3e2d2;stop-opacity: 1" offset="0%"></stop><stop style="stop-color: #010000;stop-opacity: 1" offset="100%"></stop></linearGradient><path d="M163.97 100C163.97 134.96 135.31 163.35 100 163.35C64.69 163.35 36.03 134.96 36.03 100C36.03 65.04 64.69 36.65 100 36.65C135.31 36.65 163.97 65.04 163.97 100Z" id="kS6z4Fo9i"></path><path d="M145.54 100C145.54 124.89 125.13 145.09 100 145.09C74.87 145.09 54.46 124.89 54.46 100C54.46 75.11 74.87 54.91 100 54.91C125.13 54.91 145.54 75.11 145.54 100Z" id="i3sJynvgZi"></path><linearGradient id="gradientb2WjJvU0dS" gradientUnits="userSpaceOnUse" x1="100" y1="54.91" x2="128.91" y2="192.8"><stop style="stop-color: #e3e2d2;stop-opacity: 1" offset="0%"></stop><stop style="stop-color: #010000;stop-opacity: 1" offset="100%"></stop></linearGradient><path d="M141.21 100C141.21 122.52 122.74 140.81 100 140.81C77.26 140.81 58.79 122.52 58.79 100C58.79 77.48 77.26 59.19 100 59.19C122.74 59.19 141.21 77.48 141.21 100Z" id="a2zb6Fvk4"></path><path d="M92.58 55.79C89.75 55.81 87.47 58.13 87.5 60.96C87.65 77.53 88.07 122.1 88.22 138.67C88.25 141.5 90.56 143.78 93.39 143.75C97.49 143.71 104.67 143.65 108.77 143.61C111.6 143.58 113.88 141.26 113.85 138.43C113.7 121.87 113.29 77.29 113.13 60.72C113.11 57.89 110.79 55.62 107.96 55.64C103.86 55.68 96.68 55.75 92.58 55.79Z" id="a75eQq7yy"></path><linearGradient id="gradienta1KyRmBwq0" gradientUnits="userSpaceOnUse" x1="100.27" y1="55.71" x2="101.08" y2="143.68"><stop style="stop-color: #ffffff;stop-opacity: 1" offset="0%"></stop><stop style="stop-color: #6c6518;stop-opacity: 1" offset="100%"></stop></linearGradient><path d="M93.24 58.25C91.02 58.3 89.26 60.13 89.3 62.34C89.59 77.18 90.36 117.67 90.64 132.51C90.69 134.72 92.52 136.48 94.73 136.44C97.94 136.38 103.56 136.27 106.76 136.21C108.98 136.17 110.74 134.34 110.7 132.12C110.41 117.29 109.64 76.79 109.36 61.96C109.31 59.74 107.48 57.98 105.27 58.02C102.06 58.08 96.44 58.19 93.24 58.25Z" id="a2FJni73OL"></path></defs><g><g><g><g><use xlink:href="#atHRTket0" opacity="1" fill-opacity="0" stroke="#000000" stroke-width="1" stroke-opacity="1"></use></g></g><g><g><use xlink:href="#h4MPn1VkzA" opacity="1" fill-opacity="0" stroke="#000000" stroke-width="1" stroke-opacity="1"></use></g></g><g><g><use xlink:href="#a5UfQ8Mcr7" opacity="1" fill-opacity="0" stroke="#211d1d" stroke-width="1" stroke-opacity="1"></use></g></g><g><use xlink:href="#a7W2LQWK35" opacity="1" fill="url(#gradienta5Q8UcCrp)"></use></g><g><use xlink:href="#kS6z4Fo9i" opacity="1" fill="#36340b" fill-opacity="1"></use></g><g><use xlink:href="#i3sJynvgZi" opacity="1" fill="url(#gradientb2WjJvU0dS)"></use></g><g><use xlink:href="#a2zb6Fvk4" opacity="1" fill="#36340b" fill-opacity="1"></use></g><g><use xlink:href="#a75eQq7yy" opacity="1" fill="url(#gradienta1KyRmBwq0)"></use></g><g><use xlink:href="#a2FJni73OL" opacity="1" fill="#232105" fill-opacity="1"></use></g></g></g></svg>