<?xml version="1.0" encoding="UTF-8" standalone="no"?>
<!DOCTYPE svg PUBLIC "-//W3C//DTD SVG 1.1//EN" "http://www.w3.org/Graphics/SVG/1.1/DTD/svg11.dtd">
<svg version="1.1" xmlns="http://www.w3.org/2000/svg" xmlns:xlink="http://www.w3.org/1999/xlink" preserveAspectRatio="xMidYMid meet" viewBox="0 0 200 200" width="200" height="200"><defs><path d="" id="atHRTket0"></path><path d="" id="h4MPn1VkzA"></path><path d="" id="a5UfQ8Mcr7"></path><path d="M168.17 100C168.17 137.26 137.62 167.5 100 167.5C62.38 167.5 31.83 137.26 31.83 100C31.83 62.74 62.38 32.5 100 32.5C137.62 32.5 168.17 62.74 168.17 100Z" id="a7W2LQWK35"></path><linearGradient id="gradienta5Q8UcCrp" gradientUnits="userSpaceOnUse" x1="100" y1="32.5" x2="163.97" y2="230.26"><stop style="stop-color: #e3e2d2;stop-opacity: 1" offset="0%"></stop><stop style="stop-color: #010000;stop-opacity: 1" offset="100%"></stop></linearGradient><path d="M163.97 100C163.97 134.96 135.31 163.35 100 163.35C64.69 163.35 36.03 134.96 36.03 100C36.03 65.04 64.69 36.65 100 36.65C135.31 36.65 163.97 65.04 163.97 100Z" id="kS6z4Fo9i"></path><path d="M145.54 100C145.54 124.89 125.13 145.09 100 145.09C74.87 145.09 54.46 124.89 54.46 100C54.46 75.11 74.87 54.91 100 54.91C125.13 54.91 145.54 75.11 145.54 100Z" id="i3sJynvgZi"></path><linearGradient id="gradientb2WjJvU0dS" gradientUnits="userSpaceOnUse" x1="100" y1="54.91" x2="128.91" y2="192.8"><stop style="stop-color: #e3e2d2;stop-opacity: 1" offset="0%"></stop><stop style="stop-color: #010000;stop-opacity: 1" offset="100%"></stop></linearGradient><path d="M141.21 100C141.21 122.52 122.74 140.81 100 140.81C77.26 140.81 58.79 122.52 58.79 100C58.79 77.48 77.26 59.19 100 59.19C122.74 59.19 141.21 77.48 141.21 100Z" id="a2zb6Fvk4"></path><path d="M91.9 58.76C89.07 58.78 86.8 61.1 86.82 63.93C86.98 80.5 87.39 125.07 87.54 141.64C87.57 144.47 89.89 146.75 92.72 146.72C96.82 146.68 104 146.62 108.1 146.58C110.93 146.55 113.2 144.23 113.18 141.4C113.02 124.84 112.61 80.26 112.46 63.69C112.43 60.86 110.11 58.59 107.28 58.61C103.18 58.65 96 58.72 91.9 58.76Z" id="a1WiBzPkEE"></path><linearGradient id="gradientb1kj5Hqn9V" gradientUnits="userSpaceOnUse" x1="99.59" y1="58.68" x2="100.41" y2="146.65"><stop style="stop-color: #ffffff;stop-opacity: 1" offset="0%"></stop><stop style="stop-color: #6c6518;stop-opacity: 1" offset="100%"></stop></linearGradient><path d="M93.24 61.02C91.02 61.06 89.26 62.89 89.3 65.11C89.59 79.94 90.36 120.44 90.64 135.27C90.69 137.49 92.52 139.25 94.73 139.21C97.94 139.15 103.56 139.04 106.76 138.98C108.98 138.94 110.74 137.11 110.7 134.89C110.41 120.06 109.64 79.56 109.36 64.73C109.31 62.51 107.48 60.75 105.27 60.79C102.06 60.85 96.44 60.96 93.24 61.02Z" id="b228CBFwaA"></path></defs><g><g><g><g><use xlink:href="#atHRTket0" opacity="1" fill-opacity="0" stroke="#000000" stroke-width="1" stroke-opacity="1"></use></g></g><g><g><use xlink:href="#h4MPn1VkzA" opacity="1" fill-opacity="0" stroke="#000000" stroke-width="1" stroke-opacity="1"></use></g></g><g><g><use xlink:href="#a5UfQ8Mcr7" opacity="1" fill-opacity="0" stroke="#211d1d" stroke-width="1" stroke-opacity="1"></use></g></g><g><use xlink:href="#a7W2LQWK35" opacity="1" fill="url(#gradienta5Q8UcCrp)"></use></g><g><use xlink:href="#kS6z4Fo9i" opacity="1" fill="#36340b" fill-opacity="1"></use></g><g><use xlink:href="#i3sJynvgZi" opacity="1" fill="url(#gradientb2WjJvU0dS)"></use></g><g><use xlink:href="#a2zb6Fvk4" opacity="1" fill="#36340b" fill-opacity="1"></use></g><g><use xlink:href="#a1WiBzPkEE" opacity="1" fill="url(#gradientb1kj5Hqn9V)"></use></g><g><use xlink:href="#b228CBFwaA" opacity="1" fill="#232105" fill-opacity="1"></use></g></g></g></svg>