<!-- <?xml version="1.0" encoding="UTF-8" standalone="no"?>
<!DOCTYPE svg PUBLIC "-//W3C//DTD SVG 1.1//EN" "http://www.w3.org/Graphics/SVG/1.1/DTD/svg11.dtd"> -->
<svg version="1.1" xmlns="http://www.w3.org/2000/svg" xmlns:xlink="http://www.w3.org/1999/xlink" preserveAspectRatio="xMidYMid meet" viewBox="0 0 1200 800" width="1200" height="800"><defs><path d="M1146.67 57.96C1160.08 57.96 1170.95 68.83 1170.95 82.23C1170.95 206.4 1170.95 554.64 1170.95 678.81C1170.95 692.22 1160.08 703.09 1146.67 703.09C950.99 703.09 388.23 703.09 192.54 703.09C179.14 703.09 168.27 692.22 168.27 678.81C168.27 554.64 168.27 206.4 168.27 82.23C168.27 68.83 179.14 57.96 192.54 57.96C388.23 57.96 950.99 57.96 1146.67 57.96Z" id="de961YlU7"></path><linearGradient id="gradientiJzWsM9LW" gradientUnits="userSpaceOnUse" x1="669.61" y1="57.96" x2="669.61" y2="703.09"><stop style="stop-color: #877e23;stop-opacity: 1" offset="0%"></stop><stop style="stop-color: #59443e;stop-opacity: 1" offset="100%"></stop></linearGradient><path d="M879.52 102.76C896.84 102.76 910.89 116.8 910.89 134.13C910.89 238.96 910.89 522.09 910.89 626.92C910.89 644.25 896.84 658.29 879.52 658.29C746.5 658.29 378.84 658.29 245.83 658.29C228.51 658.29 214.46 644.25 214.46 626.92C214.46 522.09 214.46 238.96 214.46 134.13C214.46 116.8 228.51 102.76 245.83 102.76C378.84 102.76 746.5 102.76 879.52 102.76Z" id="i1CHAZiZqb"></path><linearGradient id="gradientcoAKwqz1D" gradientUnits="userSpaceOnUse" x1="796.36" y1="263.29" x2="888.77" y2="612.06"><stop style="stop-color: #f2e243;stop-opacity: 1" offset="0%"></stop><stop style="stop-color: #b6a23a;stop-opacity: 1" offset="100%"></stop></linearGradient><path d="M875.88 105.94C893.01 105.94 906.89 119.83 906.89 136.95C906.89 240.58 906.89 520.46 906.89 624.09C906.89 641.22 893.01 655.11 875.88 655.11C744.4 655.11 380.95 655.11 249.46 655.11C232.34 655.11 218.45 641.22 218.45 624.09C218.45 520.46 218.45 240.58 218.45 136.95C218.45 119.83 232.34 105.94 249.46 105.94C380.95 105.94 744.4 105.94 875.88 105.94Z" id="a1FXIxsiAo"></path><radialGradient id="gradienta5vGxhs2Ph" gradientUnits="userSpaceOnUse" cx="562.67" cy="380.52" dx="562.67" dy="929.69" r="549.16"><stop style="stop-color: #fed7d7;stop-opacity: 1" offset="0%"></stop><stop style="stop-color: #010000;stop-opacity: 1" offset="100%"></stop></radialGradient><path d="M856.29 122.14C872.28 122.14 885.25 135.1 885.25 151.1C885.25 248.66 885.25 512.39 885.25 609.95C885.25 625.94 872.28 638.91 856.29 638.91C733.48 638.91 394.03 638.91 271.22 638.91C255.23 638.91 242.26 625.94 242.26 609.95C242.26 512.39 242.26 248.66 242.26 151.1C242.26 135.1 255.23 122.14 271.22 122.14C394.03 122.14 733.48 122.14 856.29 122.14Z" id="l5lxFC9iHc"></path><path d="M827.87 130.77C852.39 130.77 872.27 150.65 872.27 175.17C872.27 266.19 872.27 497.27 872.27 588.9C872.27 611.75 853.74 630.27 830.89 630.27C715.76 630.27 410.54 630.27 295.11 630.27C273.09 630.27 255.24 612.42 255.24 590.41C255.24 498.48 255.24 266.19 255.24 175.17C255.24 150.65 275.12 130.77 299.64 130.77C414.16 130.77 713.35 130.77 827.87 130.77Z" id="b1sgzi7GKz"></path><radialGradient id="gradientc4s5oOpB6e" gradientUnits="userSpaceOnUse" cx="585.4" cy="113.58" dx="574.58" dy="868.43" r="754.93"><stop style="stop-color: #c3c3bf;stop-opacity: 1" offset="0%"></stop><stop style="stop-color: #5c584a;stop-opacity: 1" offset="100%"></stop></radialGradient><path d="" id="a23kMIjXTa"></path><path d="" id="a4rlwXf5bC"></path><path d="" id="at6wNYnSO"></path><path d="M1126.52 329.79C1131.54 329.79 1135.6 333.85 1135.6 338.87C1135.6 404.05 1135.6 590.52 1135.6 655.71C1135.6 660.72 1131.54 664.78 1126.52 664.78C1088.03 664.78 981.64 664.78 943.15 664.78C938.14 664.78 934.07 660.72 934.07 655.71C934.07 590.52 934.07 404.05 934.07 338.87C934.07 333.85 938.14 329.79 943.15 329.79C981.64 329.79 1088.03 329.79 1126.52 329.79Z" id="h1qg1e5IN8"></path><linearGradient id="gradienta4K8gARHG" gradientUnits="userSpaceOnUse" x1="1034.84" y1="329.79" x2="1034.84" y2="664.78"><stop style="stop-color: #b4a833;stop-opacity: 1" offset="0%"></stop><stop style="stop-color: #625d2f;stop-opacity: 1" offset="100%"></stop></linearGradient><path d="M1123.57 113.58C1128.42 113.58 1132.36 117.51 1132.36 122.36C1132.36 157.31 1132.36 253.36 1132.36 288.3C1132.36 293.15 1128.42 297.09 1123.57 297.09C1086.32 297.09 983.36 297.09 946.11 297.09C941.25 297.09 937.32 293.15 937.32 288.3C937.32 253.36 937.32 157.31 937.32 122.36C937.32 117.51 941.25 113.58 946.11 113.58C983.36 113.58 1086.32 113.58 1123.57 113.58Z" id="a34D42xTw"></path><radialGradient id="gradientf3YbMAIddM" gradientUnits="userSpaceOnUse" cx="1034.84" cy="113.58" dx="1034.84" dy="297.09" r="183.51"><stop style="stop-color: #bdba9d;stop-opacity: 1" offset="0%"></stop><stop style="stop-color: #6c6330;stop-opacity: 1" offset="100%"></stop></radialGradient><radialGradient id="gradienta1qaVvS0BJ" gradientUnits="userSpaceOnUse" cx="1020.77" cy="182.83" dx="1066.22" dy="470.39" r="291.13"><stop style="stop-color: #f2e243;stop-opacity: 1" offset="0%"></stop><stop style="stop-color: #2a260e;stop-opacity: 1" offset="100%"></stop></radialGradient><path d="M1121.54 333.63C1126.28 333.63 1130.12 337.47 1130.12 342.22C1130.12 405.96 1130.12 588.61 1130.12 652.35C1130.12 657.1 1126.28 660.94 1121.54 660.94C1085.14 660.94 984.53 660.94 948.14 660.94C943.4 660.94 939.55 657.1 939.55 652.35C939.55 588.61 939.55 405.96 939.55 342.22C939.55 337.47 943.4 333.63 948.14 333.63C984.53 333.63 1085.14 333.63 1121.54 333.63Z" id="ajbwm6Muh"></path><path d="M1106.25 423.36C1106.25 460.61 1075.71 490.86 1038.08 490.86C1000.46 490.86 969.92 460.61 969.92 423.36C969.92 386.1 1000.46 355.85 1038.08 355.85C1075.71 355.85 1106.25 386.1 1106.25 423.36Z" id="f35TugrsJw"></path><linearGradient id="gradientdq7tDg1pB" gradientUnits="userSpaceOnUse" x1="1038.08" y1="355.85" x2="1102.06" y2="553.62"><stop style="stop-color: #e3e2d2;stop-opacity: 1" offset="0%"></stop><stop style="stop-color: #010000;stop-opacity: 1" offset="100%"></stop></linearGradient><path d="M1102.06 423.36C1102.06 458.32 1073.39 486.71 1038.08 486.71C1002.78 486.71 974.11 458.32 974.11 423.36C974.11 388.39 1002.78 360.01 1038.08 360.01C1073.39 360.01 1102.06 388.39 1102.06 423.36Z" id="a1VYDfXoYX"></path><path d="M1083.62 423.36C1083.62 448.24 1063.22 468.45 1038.08 468.45C1012.95 468.45 992.55 448.24 992.55 423.36C992.55 398.47 1012.95 378.26 1038.08 378.26C1063.22 378.26 1083.62 398.47 1083.62 423.36Z" id="coE2xGa2w"></path><linearGradient id="gradientg6xSpDe5Mr" gradientUnits="userSpaceOnUse" x1="1038.08" y1="378.26" x2="1067" y2="516.15"><stop style="stop-color: #e3e2d2;stop-opacity: 1" offset="0%"></stop><stop style="stop-color: #010000;stop-opacity: 1" offset="100%"></stop></linearGradient><path d="M1079.29 423.36C1079.29 445.88 1060.83 464.16 1038.08 464.16C1015.34 464.16 996.87 445.88 996.87 423.36C996.87 400.83 1015.34 382.55 1038.08 382.55C1060.83 382.55 1079.29 400.83 1079.29 423.36Z" id="d4PDjWg0q"></path><path d="M1029.99 380.04C1027.16 380.06 1024.88 382.38 1024.91 385.21C1025.06 401.78 1025.47 446.36 1025.63 462.92C1025.65 465.75 1027.97 468.03 1030.8 468C1034.9 467.96 1042.08 467.9 1046.18 467.86C1049.01 467.83 1051.29 465.52 1051.26 462.69C1051.11 446.12 1050.69 401.54 1050.54 384.98C1050.51 382.14 1048.2 379.87 1045.37 379.9C1041.27 379.93 1034.09 380 1029.99 380.04Z" id="d9SkQ3Rct"></path><linearGradient id="gradienta2QmtYqrd" gradientUnits="userSpaceOnUse" x1="1037.68" y1="379.97" x2="1038.49" y2="467.93"><stop style="stop-color: #ffffff;stop-opacity: 1" offset="0%"></stop><stop style="stop-color: #6c6518;stop-opacity: 1" offset="100%"></stop></linearGradient><path d="M1031.32 382.78C1029.1 382.82 1027.34 384.65 1027.39 386.87C1027.67 401.7 1028.44 442.2 1028.73 457.03C1028.77 459.25 1030.6 461.01 1032.81 460.97C1036.02 460.91 1041.64 460.8 1044.85 460.74C1047.06 460.69 1048.82 458.86 1048.78 456.65C1048.5 441.81 1047.72 401.32 1047.44 386.48C1047.4 384.27 1045.57 382.51 1043.35 382.55C1040.14 382.61 1034.53 382.72 1031.32 382.78Z" id="f5ARnjSyd3"></path><path d="M951.86 128.75C951.85 129.36 952.34 129.86 952.94 129.87C986.39 130.24 1085.64 131.34 1119.08 131.71C1119.69 131.71 1120.19 131.23 1120.19 130.62C1120.2 129.74 1120.22 128.2 1120.23 127.32C1120.24 126.72 1119.75 126.22 1119.14 126.21C1085.7 125.84 986.45 124.74 953.01 124.37C952.4 124.36 951.9 124.85 951.89 125.46C951.88 126.34 951.87 127.88 951.86 128.75Z" id="a1ZeghKWyB"></path><path d="M951.86 145.1C951.85 145.71 952.34 146.2 952.94 146.21C986.39 146.58 1085.64 147.68 1119.08 148.05C1119.69 148.06 1120.19 147.57 1120.19 146.96C1120.2 146.08 1120.22 144.55 1120.23 143.67C1120.24 143.06 1119.75 142.56 1119.14 142.55C1085.7 142.18 986.45 141.08 953.01 140.71C952.4 140.71 951.9 141.19 951.89 141.8C951.88 142.68 951.87 144.22 951.86 145.1Z" id="d2ReG7Kql"></path><path d="M950.65 160.08C950.64 160.69 951.13 161.19 951.74 161.2C985.19 161.57 1084.43 162.67 1117.88 163.04C1118.48 163.04 1118.98 162.56 1118.99 161.95C1119 161.07 1119.02 159.53 1119.02 158.65C1119.03 158.04 1118.54 157.55 1117.94 157.54C1084.49 157.17 985.25 156.07 951.8 155.7C951.19 155.69 950.69 156.18 950.69 156.79C950.68 157.67 950.66 159.2 950.65 160.08Z" id="cv7oZdguY"></path><path d="M950.65 176.08C950.64 176.69 951.13 177.18 951.74 177.19C985.19 177.56 1084.43 178.66 1117.88 179.03C1118.48 179.04 1118.98 178.55 1118.99 177.94C1119 177.06 1119.02 175.53 1119.02 174.65C1119.03 174.04 1118.54 173.54 1117.94 173.53C1084.49 173.16 985.25 172.06 951.8 171.69C951.19 171.69 950.69 172.17 950.69 172.78C950.68 173.66 950.66 175.2 950.65 176.08Z" id="lKYjyQ1fY"></path><path d="M951.86 190.38C951.85 190.99 952.34 191.49 952.94 191.49C986.39 191.86 1085.64 192.96 1119.08 193.33C1119.69 193.34 1120.19 192.85 1120.19 192.25C1120.2 191.37 1120.22 189.83 1120.23 188.95C1120.24 188.34 1119.75 187.84 1119.14 187.84C1085.7 187.47 986.45 186.37 953.01 186C952.4 185.99 951.9 186.48 951.89 187.08C951.88 187.96 951.87 189.5 951.86 190.38Z" id="anQii6rrd"></path><path d="M951.86 206.05C951.85 206.66 952.34 207.15 952.94 207.16C986.39 207.53 1085.64 208.63 1119.08 209C1119.69 209.01 1120.19 208.52 1120.19 207.91C1120.2 207.03 1120.22 205.5 1120.23 204.62C1120.24 204.01 1119.75 203.51 1119.14 203.5C1085.7 203.13 986.45 202.03 953.01 201.66C952.4 201.66 951.9 202.14 951.89 202.75C951.88 203.63 951.87 205.17 951.86 206.05Z" id="aj4GhDJWL"></path><path d="M950.65 220.23C950.64 220.84 951.13 221.33 951.74 221.34C985.19 221.71 1084.43 222.81 1117.88 223.18C1118.48 223.19 1118.98 222.7 1118.99 222.09C1119 221.21 1119.02 219.68 1119.02 218.8C1119.03 218.19 1118.54 217.69 1117.94 217.68C1084.49 217.31 985.25 216.21 951.8 215.84C951.19 215.84 950.69 216.32 950.69 216.93C950.68 217.81 950.66 219.35 950.65 220.23Z" id="a3rNE6KH5j"></path><path d="M950.65 236.57C950.64 237.18 951.13 237.68 951.74 237.68C985.19 238.05 1084.43 239.15 1117.88 239.53C1118.48 239.53 1118.98 239.05 1118.99 238.44C1119 237.56 1119.02 236.02 1119.02 235.14C1119.03 234.53 1118.54 234.03 1117.94 234.03C1084.49 233.66 985.25 232.56 951.8 232.19C951.19 232.18 950.69 232.67 950.69 233.27C950.68 234.15 950.66 235.69 950.65 236.57Z" id="a1mXfnTxXL"></path><path d="M950.65 250.75C950.64 251.36 951.13 251.86 951.74 251.86C985.19 252.23 1084.43 253.33 1117.88 253.7C1118.48 253.71 1118.98 253.22 1118.99 252.62C1119 251.74 1119.02 250.2 1119.02 249.32C1119.03 248.71 1118.54 248.21 1117.94 248.21C1084.49 247.84 985.25 246.74 951.8 246.37C951.19 246.36 950.69 246.85 950.69 247.45C950.68 248.33 950.66 249.87 950.65 250.75Z" id="a55QgboCpI"></path><path d="M950.65 267.1C950.64 267.7 951.13 268.2 951.74 268.21C985.19 268.58 1084.43 269.68 1117.88 270.05C1118.48 270.06 1118.98 269.57 1118.99 268.96C1119 268.08 1119.02 266.54 1119.02 265.66C1119.03 265.06 1118.54 264.56 1117.94 264.55C1084.49 264.18 985.25 263.08 951.8 262.71C951.19 262.7 950.69 263.19 950.69 263.8C950.68 264.68 950.66 266.22 950.65 267.1Z" id="e1MA8OFW7"></path><path d="M951.86 281.28C951.85 281.88 952.34 282.38 952.94 282.39C986.39 282.76 1085.64 283.86 1119.08 284.23C1119.69 284.24 1120.19 283.75 1120.19 283.14C1120.2 282.26 1120.22 280.72 1120.23 279.84C1120.24 279.24 1119.75 278.74 1119.14 278.73C1085.7 278.36 986.45 277.26 953.01 276.89C952.4 276.88 951.9 277.37 951.89 277.98C951.88 278.86 951.87 280.4 951.86 281.28Z" id="aSWdCUp3o"></path><path d="M823.35 137.03C847.44 137.03 866.98 156.57 866.98 180.66C866.98 269.33 866.98 494.09 866.98 583.35C866.98 605.81 848.77 624.02 826.31 624.02C713.16 624.02 413.17 624.02 299.71 624.02C278.07 624.02 260.53 606.47 260.53 584.83C260.53 495.27 260.53 269.33 260.53 180.66C260.53 156.57 280.07 137.03 304.16 137.03C416.73 137.03 710.78 137.03 823.35 137.03Z" id="cr1ao7mF5"></path><path d="M1106.25 571.41C1106.25 608.66 1075.71 638.91 1038.08 638.91C1000.46 638.91 969.92 608.66 969.92 571.41C969.92 534.15 1000.46 503.91 1038.08 503.91C1075.71 503.91 1106.25 534.15 1106.25 571.41Z" id="aqy20YeRy"></path><linearGradient id="gradientbj2oog5aU" gradientUnits="userSpaceOnUse" x1="1038.08" y1="503.91" x2="1102.06" y2="701.67"><stop style="stop-color: #e3e2d2;stop-opacity: 1" offset="0%"></stop><stop style="stop-color: #010000;stop-opacity: 1" offset="100%"></stop></linearGradient><path d="M1102.06 571.41C1102.06 606.37 1073.39 634.76 1038.08 634.76C1002.78 634.76 974.11 606.37 974.11 571.41C974.11 536.45 1002.78 508.06 1038.08 508.06C1073.39 508.06 1102.06 536.45 1102.06 571.41Z" id="c2w6fJFXUf"></path><path d="M1083.62 571.41C1083.62 596.3 1063.22 616.5 1038.08 616.5C1012.95 616.5 992.55 596.3 992.55 571.41C992.55 546.52 1012.95 526.32 1038.08 526.32C1063.22 526.32 1083.62 546.52 1083.62 571.41Z" id="amE7MrqkN"></path><linearGradient id="gradienti1ArJL0pWp" gradientUnits="userSpaceOnUse" x1="1038.08" y1="526.32" x2="1067" y2="664.21"><stop style="stop-color: #e3e2d2;stop-opacity: 1" offset="0%"></stop><stop style="stop-color: #010000;stop-opacity: 1" offset="100%"></stop></linearGradient><path d="M1079.29 571.41C1079.29 593.93 1060.83 612.22 1038.08 612.22C1015.34 612.22 996.87 593.93 996.87 571.41C996.87 548.89 1015.34 530.6 1038.08 530.6C1060.83 530.6 1079.29 548.89 1079.29 571.41Z" id="b8kKUi7Qd"></path><path d="M1030.39 528.53C1027.56 528.53 1025.27 530.83 1025.27 533.66C1025.27 550.23 1025.27 594.81 1025.27 611.38C1025.27 614.21 1027.56 616.5 1030.39 616.5C1034.5 616.5 1041.67 616.5 1045.77 616.5C1048.61 616.5 1050.9 614.21 1050.9 611.38C1050.9 594.81 1050.9 550.23 1050.9 533.66C1050.9 530.83 1048.61 528.53 1045.77 528.53C1041.67 528.53 1034.5 528.53 1030.39 528.53Z" id="aR8Te5FFu"></path><linearGradient id="gradienta9OWJPxvp" gradientUnits="userSpaceOnUse" x1="1038.08" y1="528.53" x2="1038.08" y2="616.5"><stop style="stop-color: #ffffff;stop-opacity: 1" offset="0%"></stop><stop style="stop-color: #6c6518;stop-opacity: 1" offset="100%"></stop></linearGradient><path d="M1032.07 530.6C1029.85 530.6 1028.05 532.4 1028.05 534.61C1028.05 548.84 1028.05 587.49 1028.05 601.71C1028.05 603.93 1029.85 605.72 1032.07 605.72C1035.28 605.72 1040.89 605.72 1044.1 605.72C1046.32 605.72 1048.11 603.93 1048.11 601.71C1048.11 587.49 1048.11 548.84 1048.11 534.61C1048.11 532.4 1046.32 530.6 1044.1 530.6C1040.89 530.6 1035.28 530.6 1032.07 530.6Z" id="b3cE9jRTqx"></path></defs><g><g><g><g><filter id="shadow360958" x="156.27" y="45.96" width="1029.68" height="673.13" filterUnits="userSpaceOnUse" primitiveUnits="userSpaceOnUse"><feFlood></feFlood><feComposite in2="SourceAlpha" operator="in"></feComposite><feGaussianBlur stdDeviation="1"></feGaussianBlur><feOffset dx="3" dy="4" result="afterOffset"></feOffset><feFlood flood-color="#4d491c" flood-opacity="1"></feFlood><feComposite in2="afterOffset" operator="in"></feComposite><feMorphology operator="dilate" radius="1"></feMorphology><feComposite in2="SourceAlpha" operator="out"></feComposite></filter><path d="M1146.67 57.96C1160.08 57.96 1170.95 68.83 1170.95 82.23C1170.95 206.4 1170.95 554.64 1170.95 678.81C1170.95 692.22 1160.08 703.09 1146.67 703.09C950.99 703.09 388.23 703.09 192.54 703.09C179.14 703.09 168.27 692.22 168.27 678.81C168.27 554.64 168.27 206.4 168.27 82.23C168.27 68.83 179.14 57.96 192.54 57.96C388.23 57.96 950.99 57.96 1146.67 57.96Z" id="g29W16me0Y" fill="white" fill-opacity="1" filter="url(#shadow360958)"></path></g><use xlink:href="#de961YlU7" opacity="1" fill="url(#gradientiJzWsM9LW)"></use><g><use xlink:href="#de961YlU7" opacity="1" fill-opacity="0" stroke="#134142" stroke-width="0" stroke-opacity="1"></use></g></g><g><g></g><use xlink:href="#i1CHAZiZqb" opacity="1" fill="url(#gradientcoAKwqz1D)"></use><g></g></g><g><g></g><use xlink:href="#a1FXIxsiAo" opacity="1" fill="url(#gradienta5vGxhs2Ph)"></use><g></g></g><g><g></g><use xlink:href="#l5lxFC9iHc" opacity="1" fill="#e3e2d2" fill-opacity="1"></use><g></g></g><g><g></g><use xlink:href="#b1sgzi7GKz" opacity="1" fill="url(#gradientc4s5oOpB6e)"></use><g><use xlink:href="#b1sgzi7GKz" opacity="1" fill-opacity="0" stroke="#b09e94" stroke-width="1" stroke-opacity="1"></use></g><g></g></g><g><g><use xlink:href="#a23kMIjXTa" opacity="1" fill-opacity="0" stroke="#000000" stroke-width="1" stroke-opacity="1"></use></g></g><g><g><use xlink:href="#a4rlwXf5bC" opacity="1" fill-opacity="0" stroke="#000000" stroke-width="1" stroke-opacity="1"></use></g></g><g><g><use xlink:href="#at6wNYnSO" opacity="1" fill-opacity="0" stroke="#211d1d" stroke-width="1" stroke-opacity="1"></use></g></g><g><g></g><use xlink:href="#h1qg1e5IN8" opacity="1" fill="url(#gradienta4K8gARHG)"></use><g></g></g><g><g><filter id="shadow2889747" x="928.32" y="104.58" width="214.04" height="202.51" filterUnits="userSpaceOnUse" primitiveUnits="userSpaceOnUse"><feFlood></feFlood><feComposite in2="SourceAlpha" operator="in"></feComposite><feGaussianBlur stdDeviation="1"></feGaussianBlur><feOffset dx="1" dy="1" result="afterOffset"></feOffset><feFlood flood-color="#705f5f" flood-opacity="1"></feFlood><feComposite in2="afterOffset" operator="in"></feComposite><feMorphology operator="dilate" radius="1"></feMorphology><feComposite in2="SourceAlpha" operator="out"></feComposite></filter><path d="M1123.57 113.58C1128.42 113.58 1132.36 117.51 1132.36 122.36C1132.36 157.31 1132.36 253.36 1132.36 288.3C1132.36 293.15 1128.42 297.09 1123.57 297.09C1086.32 297.09 983.36 297.09 946.11 297.09C941.25 297.09 937.32 293.15 937.32 288.3C937.32 253.36 937.32 157.31 937.32 122.36C937.32 117.51 941.25 113.58 946.11 113.58C983.36 113.58 1086.32 113.58 1123.57 113.58Z" id="e5Qp7bqd4M" fill="white" fill-opacity="1" filter="url(#shadow2889747)"></path></g><use xlink:href="#a34D42xTw" opacity="1" fill="url(#gradientf3YbMAIddM)"></use><use xlink:href="#a34D42xTw" opacity="1" fill="url(#gradienta1qaVvS0BJ)"></use><g></g></g><g><g></g><use xlink:href="#ajbwm6Muh" opacity="1" fill="#6c6518" fill-opacity="1"></use><g></g></g><g><use xlink:href="#f35TugrsJw" opacity="1" fill="url(#gradientdq7tDg1pB)"></use></g><g><use xlink:href="#a1VYDfXoYX" opacity="1" fill="#36340b" fill-opacity="1"></use></g><g><use xlink:href="#coE2xGa2w" opacity="1" fill="url(#gradientg6xSpDe5Mr)"></use></g><g><use xlink:href="#d4PDjWg0q" opacity="1" fill="#36340b" fill-opacity="1"></use></g><g><use xlink:href="#d9SkQ3Rct" opacity="1" fill="url(#gradienta2QmtYqrd)"></use></g><g><use xlink:href="#f5ARnjSyd3" opacity="1" fill="#232105" fill-opacity="1"></use></g><g><use xlink:href="#a1ZeghKWyB" opacity="1" fill="#868030" fill-opacity="1"></use></g><g><use xlink:href="#d2ReG7Kql" opacity="1" fill="#868030" fill-opacity="1"></use></g><g><use xlink:href="#cv7oZdguY" opacity="1" fill="#868030" fill-opacity="1"></use></g><g><use xlink:href="#lKYjyQ1fY" opacity="1" fill="#868030" fill-opacity="1"></use></g><g><use xlink:href="#anQii6rrd" opacity="1" fill="#868030" fill-opacity="1"></use></g><g><use xlink:href="#aj4GhDJWL" opacity="1" fill="#868030" fill-opacity="1"></use></g><g><use xlink:href="#a3rNE6KH5j" opacity="1" fill="#868030" fill-opacity="1"></use></g><g><use xlink:href="#a1mXfnTxXL" opacity="1" fill="#868030" fill-opacity="1"></use></g><g><use xlink:href="#a55QgboCpI" opacity="1" fill="#868030" fill-opacity="1"></use></g><g><use xlink:href="#e1MA8OFW7" opacity="1" fill="#868030" fill-opacity="1"></use></g><g><use xlink:href="#aSWdCUp3o" opacity="1" fill="#868030" fill-opacity="1"></use></g><g><g></g><use xlink:href="#cr1ao7mF5" opacity="1" fill="#ffffff" fill-opacity="1"></use><g><use xlink:href="#cr1ao7mF5" opacity="1" fill-opacity="0" stroke="#b09e94" stroke-width="1" stroke-opacity="1"></use></g><g></g></g><g><use xlink:href="#aqy20YeRy" opacity="1" fill="url(#gradientbj2oog5aU)"></use></g><g><use xlink:href="#c2w6fJFXUf" opacity="1" fill="#36340b" fill-opacity="1"></use></g><g><use xlink:href="#amE7MrqkN" opacity="1" fill="url(#gradienti1ArJL0pWp)"></use></g><g><use xlink:href="#b8kKUi7Qd" opacity="1" fill="#36340b" fill-opacity="1"></use></g><g><use xlink:href="#aR8Te5FFu" opacity="1" fill="url(#gradienta9OWJPxvp)"></use></g><g><use xlink:href="#b3cE9jRTqx" opacity="1" fill="#232105" fill-opacity="1"></use></g></g></g></svg>